<svg width="56" height="56" viewBox="0 0 56 56" fill="none" xmlns="http://www.w3.org/2000/svg">
  <path
    d="M50.75 26.25V28C50.75 30.9944 50.1589 33.9593 49.0105 36.7248C47.8622 39.4902 46.1792 42.0018 44.0581 44.1153C41.937 46.2289 39.4195 47.903 36.65 49.0415C33.8805 50.1801 30.9134 50.7606 27.9191 50.75C16.1066 50.7084 6.48156 41.5494 5.36156 30.0169C5.34942 29.8666 5.37629 29.7158 5.43956 29.579C5.50284 29.4422 5.60037 29.3241 5.72272 29.2361C5.84507 29.1481 5.98808 29.0931 6.13789 29.0766C6.2877 29.0601 6.43924 29.0826 6.57781 29.1419C8.15184 29.8026 9.89816 29.9331 11.5529 29.5136C13.2076 29.0941 14.6809 28.1474 15.75 26.8165C16.4505 27.6877 17.3288 28.3994 18.3263 28.904C19.3238 29.4086 20.4175 29.6946 21.5343 29.7429C22.6511 29.7911 23.7654 29.6005 24.8027 29.1838C25.8399 28.767 26.7764 28.1337 27.5494 27.3262C28.2578 28.4771 29.221 29.45 30.3647 30.17C29.085 31.149 28.0481 32.4098 27.3345 33.8545C26.6209 35.2991 26.2498 36.8887 26.25 38.5C26.2491 38.7427 26.2988 38.9829 26.3957 39.2053C26.4927 39.4278 26.6349 39.6277 26.8132 39.7923C26.9916 39.9568 27.2022 40.0825 27.4318 40.1613C27.6613 40.2401 27.9047 40.2703 28.1466 40.25C28.5907 40.2021 29.001 39.9905 29.2975 39.6564C29.594 39.3223 29.7553 38.8898 29.75 38.4431C29.765 36.5965 30.5091 34.8306 31.8203 33.5301C33.1314 32.2296 34.9033 31.4999 36.75 31.5C36.9899 31.5005 37.2274 31.4517 37.4476 31.3566C37.6678 31.2615 37.8662 31.1221 38.0303 30.9471C38.1944 30.7722 38.3208 30.5653 38.4016 30.3394C38.4824 30.1135 38.5159 29.8734 38.5 29.634C38.4608 29.1842 38.2531 28.7659 37.9184 28.4628C37.5837 28.1597 37.1468 27.9944 36.6953 28H35C33.6076 28 32.2723 27.4469 31.2877 26.4623C30.3031 25.4777 29.75 24.1424 29.75 22.75V19.25H43.75C45.6065 19.25 47.387 19.9875 48.6997 21.3002C50.0125 22.613 50.75 24.3935 50.75 26.25ZM9.78469 26.25C12.1559 26.1625 14 24.1434 14 21.77V16.7387C14 14.3565 12.1559 12.3375 9.78469 12.25C9.19686 12.2285 8.61074 12.3258 8.06137 12.536C7.512 12.7463 7.01066 13.0651 6.58734 13.4735C6.16402 13.882 5.8274 14.3715 5.59762 14.913C5.36784 15.4545 5.24961 16.0368 5.25 16.625V21.875C5.24961 22.4632 5.36784 23.0455 5.59762 23.5869C5.8274 24.1284 6.16402 24.618 6.58734 25.0264C7.01066 25.4348 7.512 25.7537 8.06137 25.9639C8.61074 26.1742 9.19686 26.2715 9.78469 26.25ZM22.0347 26.25C24.4059 26.1647 26.25 24.1456 26.25 21.7722V11.4909C26.25 9.11749 24.4059 7.09842 22.0347 7.01311C21.448 6.99168 20.8629 7.08856 20.3144 7.29799C19.7659 7.50741 19.2652 7.82509 18.8421 8.23211C18.4189 8.63912 18.082 9.12714 17.8515 9.66709C17.6209 10.207 17.5014 10.7879 17.5 11.375V21.875C17.4996 22.4632 17.6178 23.0455 17.8476 23.5869C18.0774 24.1284 18.414 24.618 18.8373 25.0264C19.2607 25.4348 19.762 25.7537 20.3114 25.9639C20.8607 26.1742 21.4469 26.2715 22.0347 26.25ZM38.5 11.375C38.5004 10.7868 38.3822 10.2045 38.1524 9.66302C37.9226 9.12154 37.586 8.63195 37.1627 8.22354C36.7393 7.81512 36.238 7.49627 35.6886 7.28604C35.1393 7.0758 34.5531 6.97852 33.9653 6.99999C31.5941 7.08749 29.75 9.10655 29.75 11.48V15.75H37.625C37.8571 15.75 38.0796 15.6578 38.2437 15.4937C38.4078 15.3296 38.5 15.107 38.5 14.875V11.375Z"
    fill="#4254A6" />
</svg>