<svg width="56" height="56" viewBox="0 0 56 56" fill="none" xmlns="http://www.w3.org/2000/svg">
  <path
    d="M55.6282 23.6054L50.0457 12.436C49.84 12.0249 49.5554 11.6583 49.208 11.3572C48.8607 11.0561 48.4575 10.8264 48.0213 10.6811C47.5852 10.5359 47.1247 10.478 46.6662 10.5107C46.2077 10.5435 45.7602 10.6662 45.3491 10.8719L39.9088 13.591L28.4485 10.5591C28.1544 10.4826 27.8456 10.4826 27.5516 10.5591L16.0913 13.591L10.651 10.8719C10.2399 10.6662 9.79232 10.5435 9.33382 10.5107C8.87531 10.478 8.41484 10.5359 7.97872 10.6811C7.54259 10.8264 7.13935 11.0561 6.79201 11.3572C6.44468 11.6583 6.16006 12.0249 5.9544 12.436L0.371901 23.6032C0.16618 24.0142 0.0434489 24.4618 0.0107162 24.9203C-0.0220165 25.3788 0.0358906 25.8393 0.181131 26.2754C0.32637 26.7115 0.556098 27.1148 0.857195 27.4621C1.15829 27.8094 1.52486 28.0941 1.93596 28.2997L7.84221 31.255L19.9807 39.9241C20.1596 40.0512 20.3606 40.1439 20.5735 40.1975L34.5735 43.6975C34.8667 43.7711 35.1739 43.7674 35.4652 43.6869C35.7566 43.6064 36.0221 43.4518 36.236 43.2382L44.986 34.4882L48.2847 31.1894L54.0641 28.2997C54.8938 27.8844 55.5246 27.1566 55.8179 26.2763C56.1112 25.396 56.0429 24.4353 55.6282 23.6054ZM43.621 30.905L36.0938 24.8763C35.7566 24.6062 35.3314 24.4705 34.9001 24.4951C34.4688 24.5197 34.0618 24.703 33.7575 25.0097C29.8616 28.9341 25.5194 28.4375 22.75 26.6875L32.2088 17.5H39.1672L45.1194 29.4022L43.621 30.905ZM34.4619 40.0619L21.7482 36.8835L10.9857 29.1966L17.1107 16.9466L28 14.0613L30.1438 14.6279L20.3 24.1829L20.2825 24.2025C19.912 24.5731 19.6294 25.0221 19.4555 25.5165C19.2817 26.0108 19.2211 26.5379 19.2782 27.0589C19.3353 27.5798 19.5087 28.0812 19.7855 28.5262C20.0623 28.9711 20.4355 29.3483 20.8775 29.6297C25.375 32.5019 30.8022 32.036 35.0766 28.536L41.125 33.3944L34.4619 40.0619ZM28.8357 47.6744C28.7411 48.0526 28.523 48.3885 28.2158 48.6286C27.9087 48.8688 27.5302 48.9995 27.1403 49C26.9965 49.0001 26.8533 48.9825 26.7138 48.9475L17.5897 46.666C17.3765 46.6133 17.1753 46.5205 16.9969 46.3925L11.2328 42.2757C10.8784 41.9974 10.645 41.5931 10.5812 41.1471C10.5174 40.701 10.6281 40.2475 10.8903 39.881C11.1524 39.5145 11.5459 39.2633 11.9886 39.1797C12.4314 39.096 12.8894 39.1864 13.2672 39.4319L18.76 43.3563L27.5625 45.5525C28.0127 45.6651 28.3997 45.9519 28.6385 46.3499C28.8772 46.7478 28.9481 47.2242 28.8357 47.6744Z"
    fill="#4254A6" />
</svg>