<svg width="18" height="18" viewBox="0 0 18 18" fill="none" xmlns="http://www.w3.org/2000/svg">
  <path
    d="M12.375 16.3126C12.375 16.4618 12.3157 16.6048 12.2102 16.7103C12.1047 16.8158 11.9617 16.8751 11.8125 16.8751H6.18747C6.03829 16.8751 5.89521 16.8158 5.78972 16.7103C5.68423 16.6048 5.62497 16.4618 5.62497 16.3126C5.62497 16.1634 5.68423 16.0203 5.78972 15.9148C5.89521 15.8094 6.03829 15.7501 6.18747 15.7501H11.8125C11.9617 15.7501 12.1047 15.8094 12.2102 15.9148C12.3157 16.0203 12.375 16.1634 12.375 16.3126ZM15.1875 7.31259C15.1899 8.2503 14.9781 9.17618 14.5681 10.0196C14.1582 10.8629 13.561 11.6015 12.8222 12.1789C12.684 12.2848 12.5719 12.4209 12.4944 12.5768C12.4169 12.7326 12.376 12.9041 12.375 13.0782V13.5001C12.375 13.7985 12.2564 14.0846 12.0455 14.2956C11.8345 14.5066 11.5483 14.6251 11.25 14.6251H6.74997C6.4516 14.6251 6.16545 14.5066 5.95447 14.2956C5.7435 14.0846 5.62497 13.7985 5.62497 13.5001V13.0782C5.62485 12.9062 5.58531 12.7366 5.50937 12.5822C5.43343 12.4279 5.32312 12.2931 5.18692 12.1881C4.44991 11.6141 3.85313 10.8799 3.44175 10.0412C3.03038 9.2025 2.81519 8.2812 2.81247 7.34704C2.79419 3.99595 5.50263 1.20524 8.85091 1.12509C9.67592 1.10521 10.4966 1.25056 11.2646 1.5526C12.0326 1.85464 12.7324 2.30725 13.3228 2.88381C13.9133 3.46036 14.3824 4.1492 14.7026 4.90979C15.0229 5.67038 15.1877 6.48734 15.1875 7.31259ZM12.9297 6.65587C12.7839 5.84115 12.3919 5.09069 11.8066 4.5055C11.2213 3.92031 10.4707 3.5285 9.65599 3.38282C9.58313 3.37054 9.50857 3.37273 9.43657 3.38926C9.36456 3.4058 9.29652 3.43635 9.23632 3.47918C9.17612 3.52201 9.12495 3.57628 9.08572 3.63889C9.04649 3.7015 9.01999 3.77122 9.0077 3.84407C8.99542 3.91692 8.99761 3.99148 9.01415 4.06349C9.03068 4.1355 9.06123 4.20354 9.10407 4.26374C9.1469 4.32394 9.20117 4.37511 9.26377 4.41434C9.32638 4.45356 9.3961 4.48007 9.46895 4.49235C10.634 4.68852 11.6226 5.67712 11.8202 6.84431C11.8425 6.97531 11.9104 7.09421 12.0119 7.17993C12.1135 7.26564 12.2421 7.31264 12.375 7.31259C12.4068 7.3124 12.4385 7.30981 12.4699 7.30485C12.6169 7.27975 12.748 7.19728 12.8342 7.07558C12.9204 6.95388 12.9548 6.80291 12.9297 6.65587Z"
    fill="white" />
</svg>