<svg width="56" height="56" viewBox="0 0 56 56" fill="none" xmlns="http://www.w3.org/2000/svg">
<path d="M19.3747 7.6562C19.2885 7.44276 19.2452 7.21444 19.2473 6.98427C19.2493 6.75409 19.2967 6.52658 19.3867 6.31472C19.5684 5.88684 19.9127 5.54869 20.3437 5.37464C20.7748 5.20059 21.2573 5.20491 21.6852 5.38664C22.1131 5.56838 22.4513 5.91264 22.6253 6.3437L24.3753 10.7187C24.4615 10.9321 24.5048 11.1605 24.5027 11.3906C24.5007 11.6208 24.4533 11.8483 24.3633 12.0602C24.2733 12.272 24.1425 12.4641 23.9783 12.6254C23.8141 12.7867 23.6197 12.9141 23.4062 13.0003C23.1928 13.0864 22.9645 13.1297 22.7343 13.1277C22.5041 13.1256 22.2766 13.0782 22.0648 12.9883C21.8529 12.8983 21.6608 12.7674 21.4995 12.6032C21.3382 12.439 21.2109 12.2446 21.1247 12.0312L19.3747 7.6562ZM6.34374 22.6253L10.7187 24.3753C10.9322 24.4614 11.1605 24.5047 11.3907 24.5027C11.6208 24.5006 11.8484 24.4532 12.0602 24.3633C12.2721 24.2733 12.4642 24.1424 12.6255 23.9782C12.7867 23.814 12.9141 23.6196 13.0003 23.4062C13.0865 23.1928 13.1298 22.9644 13.1277 22.7343C13.1257 22.5041 13.0783 22.2766 12.9883 22.0647C12.8983 21.8529 12.7675 21.6608 12.6033 21.4995C12.4391 21.3382 12.2447 21.2108 12.0312 21.1246L7.65624 19.3746C7.4428 19.2885 7.21448 19.2452 6.98431 19.2472C6.75414 19.2493 6.52663 19.2967 6.31476 19.3866C6.1029 19.4766 5.91084 19.6075 5.74954 19.7717C5.58824 19.9359 5.46086 20.1303 5.37468 20.3437C5.20063 20.7748 5.20495 21.2573 5.38669 21.6852C5.56842 22.1131 5.91268 22.4512 6.34374 22.6253ZM49.6562 33.3746L45.2812 31.6246C44.8502 31.4506 44.3676 31.4549 43.9398 31.6366C43.5119 31.8184 43.1737 32.1626 42.9997 32.5937C42.8256 33.0248 42.83 33.5073 43.0117 33.9352C43.1934 34.3631 43.5377 34.7012 43.9687 34.8753L48.3437 36.6253C48.7748 36.7993 49.2573 36.795 49.6852 36.6133C50.1131 36.4315 50.4513 36.0873 50.6253 35.6562C50.7994 35.2251 50.795 34.7426 50.6133 34.3147C50.4316 33.8868 50.0873 33.5487 49.6562 33.3746ZM34.8753 43.9687C34.7013 43.5376 34.3631 43.1934 33.9352 43.0116C33.5073 42.8299 33.0248 42.8256 32.5937 42.9996C32.1627 43.1737 31.8184 43.5118 31.6367 43.9397C31.455 44.3676 31.4506 44.8501 31.6247 45.2812L33.3747 49.6562C33.5487 50.0873 33.8869 50.4315 34.3148 50.6133C34.7426 50.795 35.2252 50.7993 35.6562 50.6253C36.0873 50.4512 36.4316 50.1131 36.6133 49.6852C36.795 49.2573 36.7994 48.7748 36.6253 48.3437L34.8753 43.9687ZM52.0428 4.0512C51.8823 3.87993 51.6889 3.7427 51.4743 3.64768C51.2596 3.55267 51.0281 3.50181 50.7933 3.49814C50.5586 3.49447 50.3256 3.53805 50.1081 3.6263C49.8905 3.71455 49.693 3.84566 49.5272 4.01183L38.0625 15.4765L36.8856 14.2996C36.2355 13.6488 35.4635 13.1325 34.6137 12.7802C33.7639 12.4279 32.853 12.2466 31.9331 12.2466C31.0132 12.2466 30.1023 12.4279 29.2525 12.7802C28.4028 13.1325 27.6307 13.6488 26.9806 14.2996L23.2181 18.0556C23.1368 18.1368 23.0722 18.2333 23.0282 18.3396C22.9842 18.4458 22.9615 18.5597 22.9615 18.6746C22.9615 18.7896 22.9842 18.9035 23.0282 19.0097C23.0722 19.1159 23.1368 19.2124 23.2181 19.2937L36.715 32.7818C36.7963 32.8632 36.8928 32.9277 36.999 32.9718C37.1052 33.0158 37.2191 33.0385 37.3341 33.0385C37.449 33.0385 37.5629 33.0158 37.6691 32.9718C37.7754 32.9277 37.8719 32.8632 37.9531 32.7818L41.615 29.1199C42.9422 27.8183 43.7116 26.052 43.7609 24.1937C43.7791 23.2543 43.6068 22.3209 43.2545 21.4498C42.9023 20.5787 42.3773 19.788 41.7112 19.1253L40.5344 17.9506L51.9531 6.53839C52.2859 6.21539 52.4811 5.7763 52.4978 5.31282C52.5145 4.84934 52.3515 4.39733 52.0428 4.0512ZM18.7337 19.7618C18.568 19.596 18.3706 19.4652 18.1532 19.3771C17.9359 19.2891 17.7031 19.2456 17.4687 19.2493C17.2342 19.2529 17.0029 19.3037 16.7885 19.3985C16.574 19.4933 16.3808 19.6303 16.2203 19.8012C15.9116 20.1473 15.7486 20.5993 15.7653 21.0628C15.782 21.5263 15.9772 21.9654 16.31 22.2884L17.6466 23.625L14.2931 26.974C13.6285 27.6371 13.1049 28.4277 12.7538 29.2983C12.4027 30.169 12.2313 31.1017 12.25 32.0403C12.2962 33.8981 13.0625 35.6653 14.3872 36.9687L15.4809 38.0493L4.04468 49.4659C3.722 49.7802 3.52919 50.2042 3.50448 50.6539C3.47976 51.1037 3.62495 51.5463 3.91124 51.894C4.06847 52.0764 4.26164 52.2244 4.47868 52.3287C4.69572 52.433 4.93196 52.4914 5.1726 52.5003C5.41325 52.5091 5.65312 52.4682 5.87723 52.38C6.10133 52.2919 6.30483 52.1585 6.47499 51.9881L17.9375 40.5234L19.1122 41.7003C20.4281 43.01 22.2091 43.7453 24.0658 43.7453C25.9224 43.7453 27.7035 43.01 29.0194 41.7003L32.375 38.349L33.7619 39.7381C33.9245 39.9007 34.1175 40.0296 34.3299 40.1176C34.5424 40.2056 34.7701 40.2509 35 40.2509C35.2299 40.2509 35.4576 40.2056 35.6701 40.1176C35.8825 40.0296 36.0755 39.9007 36.2381 39.7381C36.4007 39.5755 36.5297 39.3825 36.6177 39.17C36.7057 38.9576 36.751 38.7299 36.751 38.5C36.751 38.27 36.7057 38.0423 36.6177 37.8299C36.5297 37.6174 36.4007 37.4244 36.2381 37.2618L18.7337 19.7618Z" fill="#4254A6"/>
</svg>
