<svg width="16" height="16" viewBox="0 0 16 16" fill="none" xmlns="http://www.w3.org/2000/svg">
<path d="M13.6431 11.3856C13.5924 11.4702 13.5256 11.5439 13.4465 11.6026C13.3673 11.6613 13.2774 11.7038 13.1818 11.7277C13.0862 11.7516 12.9868 11.7564 12.8893 11.7419C12.7919 11.7274 12.6982 11.6938 12.6137 11.6431L8.74997 9.32438V13.5C8.74997 13.6989 8.67095 13.8897 8.5303 14.0303C8.38965 14.171 8.19888 14.25 7.99997 14.25C7.80106 14.25 7.61029 14.171 7.46964 14.0303C7.32899 13.8897 7.24997 13.6989 7.24997 13.5V9.32438L3.38622 11.6431C3.30177 11.6938 3.20815 11.7274 3.11073 11.7419C3.01331 11.7564 2.91398 11.7515 2.81843 11.7277C2.72287 11.7038 2.63295 11.6613 2.55381 11.6027C2.47466 11.544 2.40784 11.4704 2.35716 11.3859C2.2548 11.2154 2.2244 11.0111 2.27263 10.8181C2.32086 10.6252 2.44378 10.4592 2.61435 10.3569L6.54247 8L2.61435 5.64313C2.52989 5.59244 2.45624 5.52562 2.39761 5.44648C2.33898 5.36733 2.29651 5.27742 2.27263 5.18186C2.24875 5.0863 2.24392 4.98698 2.25842 4.88955C2.27293 4.79213 2.30648 4.69852 2.35716 4.61406C2.40784 4.52961 2.47466 4.45596 2.55381 4.39733C2.63295 4.33869 2.72287 4.29622 2.81843 4.27234C2.91398 4.24846 3.01331 4.24363 3.11073 4.25814C3.20815 4.27264 3.30177 4.30619 3.38622 4.35687L7.24997 6.67562V2.5C7.24997 2.30109 7.32899 2.11032 7.46964 1.96967C7.61029 1.82902 7.80106 1.75 7.99997 1.75C8.19888 1.75 8.38965 1.82902 8.5303 1.96967C8.67095 2.11032 8.74997 2.30109 8.74997 2.5V6.67562L12.6137 4.35687C12.6982 4.30619 12.7918 4.27264 12.8892 4.25814C12.9866 4.24363 13.086 4.24846 13.1815 4.27234C13.2771 4.29622 13.367 4.33869 13.4461 4.39733C13.5253 4.45596 13.5921 4.52961 13.6428 4.61406C13.6935 4.69852 13.727 4.79213 13.7415 4.88955C13.756 4.98698 13.7512 5.0863 13.7273 5.18186C13.7034 5.27742 13.661 5.36733 13.6023 5.44648C13.5437 5.52562 13.4701 5.59244 13.3856 5.64313L9.45747 8L13.3856 10.3569C13.5561 10.4592 13.6791 10.625 13.7274 10.8179C13.7756 11.0109 13.7453 11.215 13.6431 11.3856Z" fill="#4254A6"/>
</svg>
